# xmcd CD database file
#
# Track frame offsets:
#	150
#	14635
#	30908
#	48136
#	69369
#	82302
#	95748
#	106522
#	123810
#	134375
#	150297
#	164157
#
# Disc length: 2380 seconds
#
# Revision: 0
# Processed by: cddbd v1.5.2PL0 Copyright (c) Steve Scherf et al.
# Submitted via: CDex 1.51
#
DISCID=90094a0c
DTITLE=Robin McKELLE - Introducing ROBIN McKELLE
DYEAR=2006
DGENRE=Jazz
TTITLE0=Something's Gotta Give
TTITLE1=Bei Mir Bist Du Schon
TTITLE2=Night and Day
TTITLE3=For All We Know
TTITLE4=You Brought and New Kind Of Love
TTITLE5=Dream
TTITLE6=Yes, My Darling Daughter
TTITLE7=Deep In A Dream
TTITLE8=I've Got The World On A String
TTITLE9=Come Rain Or Come Shine
TTITLE10=The Lamp Is Low
TTITLE11=On The Sunny Side Of The Street
EXTD=YEAR: 2006
EXTT0=
EXTT1=
EXTT2=
EXTT3=
EXTT4=
EXTT5=
EXTT6=
EXTT7=
EXTT8=
EXTT9=
EXTT10=
EXTT11=
PLAYORDER=
